PathFileType	4	(X/Y/Z)	E:\Qualisys_Data\Carbon_Farble_Plate\Data\Amateur_Runner\S14\T3\S14T3V21_c3d.trc
DataRate	CameraRate	NumFrames	NumMarkers	Units	OrigDataRate	OrigDataStartFrame	OrigNumFrames
200.000000	200.000000	4	39	mm	200.000000	163	326
Frame#	Time	LSHO			RSHO			LICST			RICST			LASIS			LHEEL			RASIS			LTROC			RTROC			SACR			LTH1			LSK4			LTH2			LTH3			RHM5			LSK2			LTH4			RTH1			LTOE			RTH2			RTH3			RTH4			LLEP			RLEP			LSK1			LSK3			RSK1			LHM5			RSK2			LFT1			RSK3			RSK4			LLME			RLME			RTOE			RHEEL			RFT1			RFT2			LFT2			
		X1	Y1	Z1	X2	Y2	Z2	X3	Y3	Z3	X4	Y4	Z4	X5	Y5	Z5	X6	Y6	Z6	X7	Y7	Z7	X8	Y8	Z8	X9	Y9	Z9	X10	Y10	Z10	X11	Y11	Z11	X12	Y12	Z12	X13	Y13	Z13	X14	Y14	Z14	X15	Y15	Z15	X16	Y16	Z16	X17	Y17	Z17	X18	Y18	Z18	X19	Y19	Z19	X20	Y20	Z20	X21	Y21	Z21	X22	Y22	Z22	X23	Y23	Z23	X24	Y24	Z24	X25	Y25	Z25	X26	Y26	Z26	X27	Y27	Z27	X28	Y28	Z28	X29	Y29	Z29	X30	Y30	Z30	X31	Y31	Z31	X32	Y32	Z32	X33	Y33	Z33	X34	Y34	Z34	X35	Y35	Z35	X36	Y36	Z36	X37	Y37	Z37	X38	Y38	Z38	X39	Y39	Z39	

164	0.815	-216.8737335205078	1467.717041015625	-490.05859375	-273.12353515625	1457.574584960938	-202.9365081787109	-275.0071105957031	1008.830383300781	-495.3850402832031	-243.930419921875	1006.894165039062	-221.4368743896484	-236.0729522705078	955.1201171875	-479.610595703125	-872.58349609375	469.1979675292969	-371.4486999511719	-217.5640411376953	968.306396484375	-245.9251251220703	-392.82080078125	912.1395263671876	-509.1652221679688	-343.6879272460938	880.31982421875	-178.8131713867188	-396.644287109375	1006.962341308594	-355.5072937011719	-412.1597290039062	688.0577392578125	-531.4847412109375	-716.2584228515625	525.120361328125	-468.2547302246094	-477.6249084472656	713.5435791015625	-492.5760498046875	-439.5203552246094	591.6383056640625	-521.1751098632812	140.5978851318359	167.6911468505859	-198.0545349121094	-627.0130004882812	560.3526000976562	-495.8013000488281	-509.00146484375	619.8333129882812	-487.0065612792969	-152.7653045654297	703.1644897460938	-191.0532379150391	-919.500244140625	219.2929534912109	-440.5725708007812	-225.1840667724609	671.6171875	-178.4194793701172	-114.9678497314453	615.9553833007812	-225.8262786865234	-189.4793701171875	580.4512329101562	-204.5375518798828	-519.6818237304688	554.018310546875	-511.4042663574219	-132.0476379394531	532.9247436523438	-212.6320343017578	-599.66650390625	483.8941955566406	-508.1597595214844	-693.1988525390625	449.0243530273438	-485.7262878417969	-72.24884796142578	426.2793884277344	-209.7222137451172	-939.8062133789062	300.7706298828125	-477.1650390625	-150.1678009033203	391.2530212402344	-215.8091125488281	-894.6048583984375	453.5171203613281	-339.0746154785156	-35.21219635009766	329.6317749023438	-220.8925170898438	-109.253044128418	304.1841735839844	-225.9106597900391	-866.5982055664062	428.769287109375	-440.0383911132812	-0.0609806068241596	151.0836944580078	-241.3208618164062	194.9068298339844	229.5009307861328	-256.5502624511719	-24.24377250671387	94.78943634033205	-301.2446899414062	4.628173828125	82.66140747070312	-329.0071716308594	-13.66457939147949	72.853271484375	-279.5495910644531	-905.7841796875	475.5713806152344	-387.3246154785156
165	0.82	-196.8046722412109	1464.228271484375	-489.1065673828125	-252.3374176025391	1453.722045898438	-201.9821929931641	-253.7632293701172	1005.803344726562	-495.2501831054688	-223.2241973876953	1003.645446777344	-221.3278045654297	-214.8533935546875	952.340576171875	-479.5992431640625	-849.1384887695312	472.4563598632812	-370.7305603027344	-196.4485626220703	965.3714599609376	-245.4911499023438	-371.1356506347656	907.9189453125	-509.2081298828125	-322.5961303710938	876.544677734375	-178.5915222167969	-378.5689086914062	1002.661560058594	-355.197509765625	-388.1055603027344	683.265380859375	-532.3214721679688	-690.55126953125	524.4989013671875	-468.766357421875	-454.19677734375	708.0077514648438	-493.7692260742188	-414.1946105957031	586.8470458984375	-522.2658081054688	159.3094940185547	162.4276428222656	-200.4543914794922	-600.8713989257812	557.8051147460938	-497.3442077636719	-484.2415161132812	613.9326171875	-488.5741271972656	-130.4374389648438	700.4819946289062	-190.9727478027344	-897.898681640625	223.3297729492188	-440.0568237304688	-202.8753204345703	669.239013671875	-179.2946929931641	-92.36412048339844	613.4736328125	-225.6258392333984	-167.1005554199219	577.4752807617188	-205.3257293701172	-493.9635314941406	549.2948608398438	-513.4146118164062	-110.0705413818359	530.0430297851562	-212.4039611816406	-575.157470703125	480.3893127441406	-509.0348205566406	-669.5645141601562	447.9857788085938	-485.9994812011719	-50.80852127075195	422.496826171875	-210.3233795166016	-917.8792114257812	305.6177062988281	-476.5389709472656	-128.9231414794922	388.610107421875	-216.3152465820312	-870.6519775390625	457.0297546386719	-337.7100219726562	-14.72665214538574	325.5411682128906	-221.6553039550781	-89.71602630615234	300.5489501953125	-226.3195037841797	-842.8776245117188	432.1972045898438	-439.2289733886719	17.58544731140137	146.8134613037109	-242.3536987304688	212.8772125244141	223.8150177001953	-259.0856018066406	-7.374258518218994	90.49984741210938	-301.5370788574219	20.99999237060547	77.959716796875	-329.5950927734375	3.258837699890137	68.3895034790039	-279.5790100097656	-882.060302734375	479.3456726074219	-386.5572509765625
166	0.825	-176.4100646972656	1460.414428710938	-488.4539489746094	-231.5737762451172	1449.686279296875	-200.9494781494141	-232.9338073730469	1002.546630859375	-494.9022827148438	-202.3691711425781	1000.24560546875	-220.6884002685547	-193.9859924316406	949.16162109375	-479.0755004882812	-823.830078125	475.6935119628906	-366.3815307617188	-175.4993438720703	961.79736328125	-245.3539428710938	-349.1982116699219	903.5625610351562	-509.9136352539062	-302.0392456054688	872.7254638671875	-179.2860870361328	-356.8997802734375	998.5678100585938	-355.0697021484375	-363.7915954589844	678.3609619140625	-533.2728271484375	-665.1085815429688	523.4617309570312	-469.7191772460938	-430.6481018066406	701.8284912109375	-495.1372985839844	-389.0059204101562	581.350341796875	-523.3041381835938	176.1421356201172	156.2837677001953	-202.6253509521484	-574.6820068359375	554.6138916015625	-498.816162109375	-459.4464416503906	607.4091186523438	-490.1950378417969	-107.8734130859375	697.5712280273438	-191.0405883789062	-875.6267700195312	227.4551239013672	-439.1090393066406	-180.3243408203125	666.7821655273438	-179.9899597167969	-69.48619842529297	610.7732543945312	-225.9314117431641	-144.3856201171875	575.320556640625	-205.9924468994141	-468.0622253417969	543.5520629882812	-514.6939086914062	-88.39303588867188	526.7454223632812	-213.0708618164062	-550.6754760742188	476.5757141113281	-510.0218200683594	-645.3212890625	446.2029113769531	-485.7471618652344	-29.14119529724121	418.4600219726562	-211.0303955078125	-894.962890625	309.8562927246094	-475.7406005859375	-107.9361038208008	385.6808471679688	-215.9681549072266	-846.7896728515625	460.2963256835938	-337.52392578125	5.116730690002441	320.90673828125	-222.4286804199219	-70.30643463134766	297.4169006347656	-226.6132202148438	-818.3594970703125	435.3163757324219	-438.3615417480469	34.27891540527344	141.7710571289062	-243.7199096679688	230.2316436767578	216.81640625	-261.3075256347656	8.36727237701416	85.51676177978516	-301.7659606933594	36.27111053466797	72.89311981201172	-330.9534606933594	18.89967346191406	63.60722351074219	-280.7431335449219	-857.0941772460938	483.1026916503906	-385.4377136230469
167	0.83	-156.3747253417969	1456.405639648438	-487.8265991210938	-210.7390747070312	1445.245727539062	-199.8672027587891	-211.6319732666016	998.7643432617188	-494.7309265136719	-182.1918334960938	996.427734375	-220.5542144775391	-172.7065124511719	945.4099731445312	-478.4273071289062	-799.603271484375	478.8659057617188	-367.9842529296875	-154.9170074462891	958.4799194335938	-244.8796844482422	-327.6396789550781	898.8223266601562	-510.4042358398438	-282.0167236328125	868.7916870117188	-179.4249114990234	-336.9165954589844	994.7504272460938	-355.6942138671875	-339.4180603027344	672.967041015625	-533.6827392578125	-638.4794311523438	521.9737548828125	-470.5187377929688	-407.0423278808594	695.513671875	-496.5907592773438	-363.6925048828125	575.7903442382812	-524.3958740234375	192.1830139160156	149.4239959716797	-204.8293151855469	-547.5565185546875	551.178955078125	-499.9668273925781	-434.4563903808594	600.616455078125	-491.5361633300781	-84.89723205566406	695.1970825195312	-191.1306762695312	-852.7202758789062	230.7548828125	-438.2231140136719	-157.8267822265625	664.391357421875	-180.6571502685547	-46.98990249633789	608.1997680664062	-225.5921478271484	-121.6609878540039	572.6621704101562	-206.5852508544922	-441.5569763183594	537.5205688476562	-516.4992065429688	-66.20790100097656	523.6658935546875	-212.8184509277344	-525.537109375	472.0230102539062	-510.4776916503906	-620.4830932617188	444.4423522949219	-486.118896484375	-7.847695827484131	414.5474243164062	-211.5102691650391	-870.9633178710938	313.1852416992188	-475.047119140625	-87.46466827392578	383.1265258789062	-215.5724945068359	-821.6981201171875	463.9026184082031	-336.7606811523438	24.12869071960449	316.156005859375	-223.5102081298828	-50.9359130859375	293.9676513671875	-226.4593353271484	-793.2776489257812	438.1976318359375	-437.774169921875	50.20072555541992	136.2571411132812	-244.4931182861328	246.6127014160156	209.4756622314453	-263.7480773925781	23.06975746154785	80.5062255859375	-303.2488098144531	50.61321258544922	67.79297637939453	-331.9590759277344	33.23106002807617	57.85949325561523	-282.02978515625	-832.0736694335938	486.4983215332031	-384.5986938476562
